<?xml version="1.0" encoding="UTF-8" standalone="no"?><!DOCTYPE svg PUBLIC "-//W3C//DTD SVG 1.1//EN" "http://www.w3.org/Graphics/SVG/1.1/DTD/svg11.dtd"><svg width="100%" height="100%" viewBox="0 0 4267 3200" version="1.1" xmlns="http://www.w3.org/2000/svg" xmlns:xlink="http://www.w3.org/1999/xlink" xml:space="preserve" xmlns:serif="http://www.serif.com/" style="fill-rule:evenodd;clip-rule:evenodd;stroke-linejoin:round;stroke-miterlimit:2;"><path d="M1925.43,1767.53c38.102,-77.358 77.808,-152.303 112.222,-229.604c30.106,-67.628 75.518,-118.72 135.384,-161.77c136.924,-98.461 271.04,-200.822 406.585,-301.21c31.709,-23.485 56.387,-50.468 63.113,-91.476c6.958,-42.421 -16.46,-95.55 -56.317,-121.968c-39.852,-26.415 -91.183,-26.963 -129.187,0.584c-71.919,52.132 -143.169,105.186 -214.712,157.837c-62.254,45.815 -142.818,45.401 -205.414,-0.326c-70.066,-51.185 -140.672,-101.632 -210.711,-152.855c-38.972,-28.502 -80.54,-33.204 -123.557,-12.704c-46.259,22.044 -69.557,61.725 -71.273,111.627c-1.381,40.178 15.663,74.105 49.266,98.286c72.125,51.901 144.159,103.93 216.36,155.727c25.184,18.067 32.858,43.595 18.487,63.671c-14.845,20.739 -42.306,24.135 -66.626,6.849c-76.949,-54.695 -154.511,-108.595 -230.077,-165.152c-102.434,-76.666 -98.58,-243.097 4.91,-325.336c70.374,-55.923 173.077,-64.853 250.504,-5.345c66.57,51.163 137.11,97.157 203.739,148.247c46.231,35.449 87.167,26.632 123.901,-0.069c66.817,-48.565 135.447,-94.936 199.518,-146.91c95.741,-77.664 227.829,-39.989 289.183,47.416c66.943,95.366 50.014,216.988 -42.431,287.171c-96.724,73.433 -194.434,145.576 -292.22,217.593c-14.625,10.77 -15.653,17.976 -6.912,34.768c38.438,73.85 73.529,149.435 111.444,223.567c23.052,45.071 44.72,90.748 65.971,136.646c26.807,57.899 9.132,123.221 -41.796,156.506c-56.064,36.642 -124.731,28.097 -167.774,-21.231c-10.938,-12.536 -20.833,-25.856 -28.387,-40.944c-35.42,-70.739 -71.228,-141.284 -106.836,-211.929c-14.621,-29.007 -9.058,-55.193 14.062,-67c23.981,-12.247 49.792,-0.701 64.142,27.959c36.347,72.593 72.829,145.118 109.579,217.508c14.067,27.709 34.439,37.679 56.649,28.93c23.365,-9.204 32.821,-31.473 21.775,-54.017c-53.986,-110.181 -108.185,-220.257 -162.571,-330.24c-12.301,-24.877 -23.782,-26.066 -47.608,-11.412c-59.358,36.507 -99.588,87.062 -128.078,150.982c-38.656,86.728 -82.838,171.035 -125.88,255.755c-45.099,88.772 -156.33,105.713 -218.414,33.571c-31.09,-36.128 -41.008,-78.995 -20.457,-122.204c59.318,-124.712 120.756,-248.431 182.702,-371.867c14.979,-29.848 38.005,-54.18 65.347,-74.551c161.422,-120.264 322.43,-241.084 483.612,-361.67c5.549,-4.152 11.264,-8.158 17.247,-11.637c21.426,-12.461 47.478,-8.154 59.782,9.624c12.394,17.908 6.471,45.774 -13.46,60.766c-60.45,45.47 -121.076,90.706 -181.585,136.098c-102.7,77.043 -205.265,154.268 -308.118,231.106c-23.958,17.899 -41.882,40.422 -55.05,66.86c-55.362,111.157 -110.614,222.369 -165.652,333.687c-12.159,24.591 -6.246,46.481 14.296,57.234c21.499,11.254 47.125,2.476 59.863,-20.949c7.289,-13.404 13.867,-27.194 21.46,-42.199Z" style="fill-rule:nonzero;"/><path d="M1643.37,1902.4c46.66,37.744 95.712,69.012 147.982,95.313c28.061,14.12 37.869,35.785 26.813,58.277c-10.192,20.735 -37.483,28.402 -63.506,16.47c-119.758,-54.908 -223.462,-131.577 -308.38,-232.441c-102.644,-121.918 -170.22,-261.195 -198.29,-418.351c-26.181,-146.578 -11.684,-290.465 38.436,-430.207c68.081,-189.818 185.38,-341.421 356.997,-449.281c29.958,-18.828 60.941,-36.045 94.092,-48.885c27.235,-10.549 51.955,-2.335 61.824,20.412c9.87,22.749 0.24,42.784 -27.191,56.696c-241.081,122.268 -384.07,322.001 -434.474,582.298c-44.537,230.002 18.839,438.477 170.041,618.671c40.271,47.993 85.612,90.919 135.656,131.028Z" style="fill-rule:nonzero;"/><path d="M2678.43,688.315c-53.457,-49.548 -113.116,-87.284 -176.636,-119.217c-25.071,-12.605 -35.152,-32.173 -26.562,-53.132c9.126,-22.269 30.922,-30.835 57.614,-21.93c41.833,13.956 79.657,36.022 116.09,60.233c211.186,140.34 336.758,338.112 376.802,586.329c50.249,311.474 -54.232,571.716 -281.233,785.59c-63.042,59.396 -136.021,105.033 -214.162,142.306c-11.919,5.685 -23.706,10.482 -37.777,9.151c-20.633,-1.952 -34.731,-11.955 -38.584,-31.766c-3.831,-19.706 5.311,-34.929 23.383,-44.432c41.171,-21.65 81.704,-44.333 119.316,-71.936c146.206,-107.298 259.63,-239.698 316.597,-414.913c31.699,-97.496 43.191,-197.417 32.981,-299.697c-20.937,-209.737 -116.644,-381.43 -267.829,-526.586Z" style="fill-rule:nonzero;"/><circle cx="2138.35" cy="623.714" r="187.762"/><path d="M1856.82,2651.59c-17.424,-1.401 -33.44,3.442 -52.215,-3.065c9.054,-22.117 17.544,-43.656 26.637,-64.938c48.783,-114.167 98.212,-228.062 146.156,-342.58c9.028,-21.564 20.574,-28.956 44.423,-30.798c38.764,-2.994 58.284,8.903 73.413,46.728c49.947,124.87 104.742,247.8 157.587,371.513c2.646,6.195 6.54,12.229 5.14,23.076c-22.588,0 -45.102,0.092 -67.615,-0.051c-7.595,-0.049 -10.271,-5.822 -12.784,-11.813c-8.305,-19.803 -17.235,-39.357 -25.039,-59.352c-5.557,-14.238 -12.821,-22.122 -30.269,-21.773c-59.659,1.195 -119.361,0.987 -179.034,0.256c-15.582,-0.191 -24.44,5.052 -29.64,19.617c-6.053,16.956 -14.831,32.999 -20.136,50.148c-5.645,18.249 -15.654,26.814 -36.624,23.032m216.817,-256.896c-12.769,-29.365 -25.538,-58.729 -40.902,-94.064c-29.783,65.867 -56.209,125.72 -79.815,187.533l159.785,0c-13.439,-32.34 -25.547,-61.477 -39.068,-93.469Z" style="fill-rule:nonzero;"/><path d="M950.424,2211.13c20.966,8.533 38.008,20.311 54.35,33.373c13.042,10.426 16.184,19.903 4.202,34.612c-26.958,33.093 -26.356,33.805 -61.858,10.328c-38.522,-25.476 -80.958,-31.241 -125.588,-24.883c-13.775,1.962 -26.769,7.546 -38.265,15.617c-33.438,23.475 -31.403,67.553 4.559,86.73c32.202,17.172 68.365,22.357 103.217,31.29c24.911,6.385 49.538,13.443 72.754,24.632c38.381,18.498 62.8,47.692 66.443,91.202c4.084,48.774 -12.598,88.985 -53.97,116.482c-79.644,52.934 -220.472,39.111 -289.758,-26.797c-13.932,-13.252 -16.395,-24.549 -2.271,-38.188c0.493,-0.476 0.843,-1.1 1.26,-1.654c23.677,-31.402 23.324,-30.919 54.71,-7.966c48.078,35.16 101.757,45.456 159.773,33.046c12.951,-2.771 25.05,-8.433 35.733,-16.385c29.398,-21.88 27.16,-63.25 -4.489,-81.647c-25.594,-14.877 -54.495,-19.994 -82.713,-27.035c-34.28,-8.552 -68.606,-16.538 -100.724,-32.297c-89.003,-43.671 -75.267,-160.7 -14.273,-202.929c58.087,-40.217 121.944,-40.594 187.694,-26.966c9.44,1.957 18.47,5.888 29.214,9.435Z" style="fill-rule:nonzero;"/><path d="M1090.57,2558.34c-20.065,-59.981 -13.532,-115.41 20.75,-166.472c46.694,-69.551 157.078,-92.795 229.899,-23.785c1.02,-0.696 2.838,-1.294 2.94,-2.108c3.718,-29.601 3.696,-29.604 33.327,-29.623c4.164,-0.003 8.404,0.498 12.481,-0.104c20.883,-3.086 27.865,5.431 27.642,26.59c-0.932,88.142 -0.371,176.3 -0.373,264.452c-0,38.871 -0.637,77.754 0.218,116.605c0.382,17.325 -4.232,25.229 -23.335,24.617c-56.339,-1.802 -48.285,6.822 -48.831,-48.688c-0.318,-32.279 -0.058,-64.565 -0.058,-98.598c-112.117,69.573 -208.62,45.324 -254.66,-62.886m239.198,-123.237c-40.696,-55.439 -113.689,-58.005 -156.113,-5.487c-26.179,32.406 -28.915,82.683 -6.597,121.205c19.815,34.203 57.734,50.519 99.906,43.876c63.474,-9.999 105.23,-91.618 62.804,-159.594Z" style="fill-rule:nonzero;"/><path d="M2761.6,2336.71c62.552,-1.173 62.611,-1.197 86.355,54.739c21.956,51.726 43.728,103.531 65.717,155.244c2.065,4.857 2.55,10.829 8.359,14.089c7.663,-7.838 9.194,-18.457 13.064,-27.809c24.141,-58.341 48.443,-116.627 71.51,-175.395c6.343,-16.159 15.267,-22.96 32.548,-21.58c15.704,1.255 31.588,0.266 46.158,0.266c6.371,11.376 0.337,18.777 -2.703,25.861c-48.673,113.437 -97.408,226.848 -146.795,339.974c-26.174,59.956 -81.663,84.309 -143.929,65.152c-12.568,-3.867 -16.82,-10.875 -13.277,-23.203c1.15,-3.998 2.212,-8.027 3.142,-12.082c6.533,-28.478 6.542,-28.618 34.995,-23.886c19.292,3.209 37.391,-0.372 48.233,-16.805c11.738,-17.789 24.191,-35.485 12.696,-60.665c-41.134,-90.101 -80.488,-181.016 -120.214,-271.755c-3.118,-7.121 -12.334,-16.242 4.141,-22.145Z" style="fill-rule:nonzero;"/><path d="M1487.96,2435.75c-1.231,-57.152 31.031,-94.67 92.955,-105.503c49.593,-8.676 96.646,-0 138.8,29.72c15.153,10.683 18.553,21.536 4.458,35.365c-2.459,2.412 -4.741,5.174 -6.455,8.149c-10.001,17.352 -19.864,19.913 -37.487,6.409c-28.414,-21.774 -61.976,-26.824 -96.781,-16.718c-14.075,4.087 -26.03,12.944 -26.937,28.45c-0.976,16.694 12.24,23.939 26.16,28.017c23.944,7.013 48.209,12.925 72.193,19.807c13.31,3.819 26.82,7.569 39.389,13.237c61.254,27.627 72.325,103.421 20.765,147.105c-40.981,34.72 -90.075,36.298 -140.12,28.343c-30.5,-4.848 -58.667,-16.162 -83.868,-34.637c-13.305,-9.753 -15.897,-20.082 -5.258,-33.156c2.183,-2.682 3.927,-5.721 5.873,-8.596c16.321,-24.115 16.318,-24.111 40.33,-7.529c31.189,21.539 65.945,28.474 103.063,24.161c8.064,-0.936 16.242,-3.979 23.543,-7.679c11.098,-5.624 18.877,-14.754 18.236,-28.014c-0.6,-12.402 -8.709,-19.856 -19.47,-24.856c-16.501,-7.666 -34.236,-11.18 -51.716,-15.558c-21.516,-5.388 -43.151,-10.184 -63.799,-18.734c-29.986,-12.417 -48.963,-33.285 -53.874,-67.783Z" style="fill-rule:nonzero;"/><path d="M2404.35,2211.32c34.202,0.226 34.163,0.226 34.15,32.009c-0.052,126.197 -0.066,252.393 -0.123,378.59c-0.013,30.408 -0.064,30.407 -29.416,29.572c-37.666,-1.073 -41.988,-4.152 -42.739,-41.835c-1.823,-91.485 -2.464,-182.993 -3.644,-274.491c-0.107,-8.226 1.365,-16.635 -3.426,-27.73c-17.855,6.732 -33.544,17.426 -49.597,27.229c-34.569,21.112 -33.347,20.746 -48.201,-17.446c-8.036,-20.659 -4.522,-32.305 15.133,-43.067c27.306,-14.952 53.485,-32.144 79.183,-49.781c14.542,-9.98 29.427,-14.842 48.68,-13.05Z" style="fill-rule:nonzero;"/><path d="M2628.16,2211.32c34.202,0.226 34.163,0.226 34.15,32.009c-0.052,126.197 -0.066,252.393 -0.123,378.59c-0.013,30.408 -0.063,30.407 -29.416,29.572c-37.665,-1.073 -41.988,-4.152 -42.739,-41.835c-1.823,-91.485 -2.464,-182.993 -3.644,-274.491c-0.106,-8.226 1.366,-16.635 -3.426,-27.73c-17.854,6.732 -33.544,17.426 -49.597,27.229c-34.569,21.112 -33.346,20.746 -48.201,-17.446c-8.035,-20.659 -4.522,-32.305 15.133,-43.067c27.306,-14.952 53.485,-32.144 79.183,-49.781c14.542,-9.98 29.428,-14.842 48.68,-13.05Z" style="fill-rule:nonzero;"/><path d="M3500.34,2478.42c17.556,5.224 33.73,9.368 49.33,15.079c33.323,12.199 52.758,36.505 53.717,71.935c0.935,34.555 -15.016,61.393 -45.815,78.389c-52.414,28.923 -137.82,19.396 -182.531,-19.85c-9.388,-8.24 -12.41,-16.226 -3.848,-26.651c4.401,-5.359 8.734,-10.84 12.457,-16.674c8.308,-13.019 16.604,-13.121 28.687,-3.502c28.637,22.799 61.327,31.684 97.575,22.694c15.032,-3.728 27.844,-11.638 28.762,-28.732c0.918,-17.08 -12.556,-23.872 -26.095,-28.205c-23.092,-7.388 -46.756,-12.996 -69.831,-20.432c-45.667,-14.718 -69.075,-42.613 -67.46,-79.008c1.868,-42.105 28.31,-73.373 74.024,-83.786c44.53,-10.145 86.978,-2.571 125.554,22.28c11.774,7.585 23.069,15.987 9.544,33.136c-22.689,28.769 -22.295,29.679 -42.171,14.867c-22.792,-16.984 -48.352,-20 -75.249,-15.796c-13.969,2.183 -25.042,9.457 -27.122,24.792c-2.132,15.725 9.459,22.17 21.275,26.89c12.197,4.873 25.011,8.2 39.197,12.574Z" style="fill-rule:nonzero;"/><path d="M1715.45,966.684c6.469,-37.631 38.538,-50.328 70.639,-28.204c54.277,37.408 107.751,75.982 161.536,114.103c30.568,21.667 61.046,43.46 91.633,65.1c20.863,14.76 27.119,40.433 14.438,59.997c-13.274,20.478 -40.36,25.803 -62.216,10.318c-85.5,-60.574 -170.599,-121.714 -255.77,-182.752c-12.481,-8.944 -20.123,-20.901 -20.26,-38.562Z" style="fill-rule:nonzero;"/><path d="M3317.17,2562.5c-0.04,39.567 0.771,77.075 -0.31,114.529c-1.927,66.785 -46.878,103.487 -110.089,91.909c-11.715,-2.146 -17.548,-6.362 -16.567,-18.682c0.659,-8.288 0.489,-16.648 0.545,-24.977c0.078,-11.936 4.035,-17.094 17.764,-15.578c31.55,3.484 44.111,-8.673 44.218,-41.729c0.297,-91.627 -0.034,-183.255 0.356,-274.881c0.041,-9.712 -5.596,-23.799 6.385,-28.196c16.184,-5.938 34.477,-5.589 50.944,0.223c8.974,3.167 6.639,14.39 6.665,22.457c0.186,57.613 0.092,115.228 0.089,174.925Z" style="fill-rule:nonzero;"/><circle cx="3127.66" cy="2635.72" r="38.97"/><circle cx="3279.28" cy="2289.2" r="38.97"/></svg>